W<?xml version="1.0" encoding="UTF-8"?><svg id="Layer_1" xmlns="http://www.w3.org/2000/svg" xmlns:xlink="http://www.w3.org/1999/xlink" viewBox="0 0 600 600"><defs><style>.cls-1{fill:#25333a;}.cls-2{fill:#2173b9;}.cls-3{fill:#eef3f3;}.cls-4{clip-path:url(#clippath-1);}.cls-5{fill:#cdcccc;}.cls-6{fill:#0387b6;}.cls-7{fill:#6d7172;}.cls-8{fill:#f47c5c;}.cls-9{clip-path:url(#clippath);}.cls-10{fill:none;}.cls-11{fill:#eb5a2e;}</style><clipPath id="clippath"><rect class="cls-10" x="241.28" y="235.13" width="117.2" height="129.73"/></clipPath><clipPath id="clippath-1"><rect class="cls-10" x="241.28" y="235.13" width="117.2" height="129.73"/></clipPath></defs><circle class="cls-8" cx="300" cy="300" r="300"/><g><rect class="cls-3" x="294.7" y="210.41" width="10.6" height="178.06"/><rect class="cls-3" x="149.91" y="210.41" width="10.6" height="178.06"/><rect class="cls-3" x="439.49" y="210.41" width="10.6" height="178.06"/><rect class="cls-3" x="155.2" y="294.14" width="289.58" height="10.6"/><rect class="cls-1" x="223.48" y="134.45" width="153.05" height="75.96" rx="1.51" ry="1.51"/><rect class="cls-3" x="117.23" y="134.45" width="75.96" height="75.96" rx="2.11" ry="2.11"/><rect class="cls-3" x="406.81" y="134.45" width="75.96" height="75.96" rx="2.11" ry="2.11"/><rect class="cls-3" x="117.23" y="388.47" width="75.96" height="75.96" rx="2.11" ry="2.11"/><rect class="cls-3" x="406.81" y="388.47" width="75.96" height="75.96" rx="2.11" ry="2.11"/><rect class="cls-3" x="262.02" y="388.47" width="75.96" height="75.96" rx="2.11" ry="2.11"/><rect class="cls-3" x="262.02" y="261.46" width="75.96" height="75.96" rx="2.11" ry="2.11"/><g><circle class="cls-8" cx="155.2" cy="299.44" r="26.36"/><path class="cls-3" d="M155.2,331.1c-17.46,0-31.66-14.2-31.66-31.66s14.2-31.66,31.66-31.66,31.66,14.2,31.66,31.66-14.2,31.66-31.66,31.66Zm0-52.73c-11.61,0-21.07,9.45-21.07,21.07s9.45,21.06,21.07,21.06,21.07-9.45,21.07-21.06-9.45-21.07-21.07-21.07Z"/></g><g><circle class="cls-8" cx="444.78" cy="299.44" r="26.36"/><path class="cls-3" d="M444.78,331.1c-17.46,0-31.66-14.2-31.66-31.66s14.2-31.66,31.66-31.66,31.66,14.2,31.66,31.66-14.2,31.66-31.66,31.66Zm0-52.73c-11.61,0-21.07,9.45-21.07,21.07s9.45,21.06,21.07,21.06,21.07-9.45,21.07-21.06-9.45-21.07-21.07-21.07Z"/></g><g><rect class="cls-3" x="251.61" y="150.8" width="96.54" height="8.83"/><rect class="cls-3" x="251.61" y="185.62" width="96.54" height="8.83"/><rect class="cls-3" x="251.61" y="168.02" width="68.09" height="8.83"/></g></g><g class="cls-9"><g class="cls-4"><path class="cls-5" d="M300.23,356.99c30.12-.74,55.81-24.52,55.86-56.45,.05-31.24-24.87-56.61-55.67-56.67-.11,0-.22,0-.33,0"/><path class="cls-7" d="M298.22,355.94c-30.98-.74-55.89-25.75-55.95-56.54-.05-31.29,25.58-56.7,57.26-56.76,.11,0,.22,0,.33,0"/><path class="cls-6" d="M299.93,302.87v56.11h1.1v.04c.49,0,.99-.02,1.49-.04h.16c14.59-.71,34.74-8.17,47.18-28.57,11.9-19.53,10.43-42.34,2-58.13,1.84,16.27-1.81,31.01-11.7,43.96-9.55,12.5-22.18,19.94-37.48,22.68v-35.43l17.11,3.94,.04-.15,.1,.08,3.8-4.68h0s.13-.16,.13-.16l6.6-8.13-.03-.03,.86-1.07c.56,.36,1.31,.53,2.11,.53,1.67,0,3.59-.74,4.6-1.99l.46-.58c.85-1.05,1.24-2.54,1.08-4.07-.16-1.53-.86-2.89-1.9-3.73-1.56-1.26-2.93-1.73-4.57-1.55-1.68,.19-2.9,.8-3.75,1.85-.85,1.05-1.81,2.49-1.65,4.25,.11,1.19,.33,2.4,1.09,3.22l-.08,.11-.05,.02h.03s-7.34,9.13-7.34,9.13l-2.7,3.32-14.29-3.29,11.22-5.91-.08-.15h.16s.86-18.71,.86-18.71l13.91-4.29-.05-.15,.15,.04,4.99-20.58-.08-.02,.9-3.86c2.06,.22,4.84-1.93,5.37-4.23l.17-.72c.32-1.3,.05-2.79-.75-4.09-.81-1.32-2.03-2.26-3.35-2.56h0c-1.96-.46-3.39-.28-4.79,.59-1.4,.87-2.27,1.98-2.57,3.28-.3,1.33-.54,3.04,.36,4.54,.61,1.03,1.32,2.03,2.38,2.44l-2.74,11.75h.01s-2.66,10.97-2.66,10.97l-4.37,1.35-6.36-9.24c1.54-1.34,1.84-4.93,.51-6.84l-.43-.61c-.75-1.1-2.05-1.9-3.56-2.18-1.52-.28-3.03,0-4.14,.75h0c-1.68,1.16-2.49,2.31-2.78,3.94-.3,1.62-.06,3.01,.7,4.12,1.14,1.66,2.25,2.52,3.61,2.79,.6,.12,1.21,.22,1.8,.22s1.1-.09,1.59-.33l.09,.13v.02h0s5.67,8.23,5.67,8.23l-6.66,2.06,.05,.17h-.16s-.87,19.1-.87,19.1l-9.72,5.12v-55.8h-2.75v57.25m32.19-13.16c.43-.31,.97-.47,1.51-.47,.36,0,.72,.07,1.05,.22,.77,.34,1.24,1.01,1.33,1.9,.07,.8-.29,1.84-1.27,2.36-.84,.44-1.97,.35-2.64-.21-.13-.11-.53-.62-.61-.77-.12-.23-.21-.55-.24-.86-.1-.91,.21-1.68,.86-2.16m2.6-47c.41-.25,.89-.4,1.37-.4,.73,0,1.46,.33,1.95,1.13,.42,.66,.57,1.77-.1,2.67h0c-.56,.75-1.62,1.17-2.48,.97-.17-.04-.74-.33-.88-.43-.21-.15-.4-.37-.6-.68-.87-1.4-.25-2.65,.74-3.26m-20.92,20.22c-.14,.09-.74,.33-.92,.36-.26,.05-.56,.05-.9-.01-1.61-.3-2.12-1.59-1.91-2.73,.19-1.06,1.03-2.02,2.29-2.02,.15,0,.32,.01,.48,.04,.79,.15,1.68,.79,1.91,1.88,.19,.92-.22,1.98-.95,2.48"/><path class="cls-11" d="M296.84,241.94v.07c-14.56,.82-34.48,8.31-46.81,28.55-11.9,19.53-10.43,42.34-2,58.13-1.84-16.28,1.81-31.01,11.71-43.96,9.47-12.41,21.97-19.81,37.1-22.62v35.68l-17.49-4.22-.04,.17-.12-.09-3.74,4.61h0s-.14,.17-.14,.17l-6.5,8,.03,.02-.85,1.06c-1.72-1.08-5.12-.37-6.59,1.45l-.46,.57c-.84,1.03-1.22,2.49-1.06,4.01,.16,1.51,.84,2.86,1.87,3.69,1.33,1.08,2.52,1.56,3.86,1.56,.21,0,.42-.01,.64-.04,1.65-.19,2.86-.78,3.7-1.82,.84-1.04,1.79-2.45,1.63-4.19-.11-1.16-.32-2.35-1.06-3.16l.11-.13h.01s0,0,0,0l7.21-8.94,2.66-3.28,13.75,3.32-10.72,5.67,.09,.18h-.19s-.84,18.43-.84,18.43l-13.7,4.23,.05,.17-.17-.04-4.92,20.29,.08,.02-.89,3.81c-2.02-.21-4.76,1.91-5.29,4.18l-.17,.71c-.31,1.29-.04,2.78,.76,4.07,.8,1.29,1.99,2.2,3.28,2.49,.69,.16,1.31,.24,1.88,.24,1.05,0,1.95-.27,2.84-.82,1.38-.86,2.24-1.95,2.54-3.24,.3-1.31,.53-3-.35-4.48-.6-1-1.29-1.98-2.31-2.39l2.7-11.59h-.01s2.62-10.8,2.62-10.8l4.27-1.32,6.26,9.09c-1.5,1.33-1.79,4.85-.49,6.73l.42,.6c.74,1.09,2.02,1.87,3.51,2.15,.39,.07,.77,.11,1.15,.11,1.09,0,2.12-.29,2.93-.85h0c1.66-1.15,2.45-2.27,2.74-3.89,.29-1.6,.06-2.97-.69-4.06-1.13-1.63-2.22-2.48-3.56-2.75-1.14-.23-2.33-.37-3.32,.1l-5.67-8.24,6.54-2.02-.06-.19h.18s.86-18.83,.86-18.83l10.19-5.39v56.18h3.17v-117.13h-3.17Zm-29.66,72.85c-.7,.51-1.71,.61-2.53,.25-.76-.33-1.22-1-1.31-1.87-.07-.79,.29-1.82,1.25-2.32h0c.82-.43,1.94-.34,2.61,.21,.13,.11,.52,.61,.61,.75,.12,.22,.2,.54,.23,.85,.1,.9-.2,1.65-.85,2.13m-2.57,46.32c-1.01,.63-2.46,.58-3.27-.72-.4-.65-.54-1.75,.1-2.63,.55-.74,1.6-1.15,2.45-.95,.17,.04,.73,.32,.86,.42,.21,.14,.4,.36,.59,.67,.85,1.38,.25,2.61-.73,3.21m20.63-19.93c.14-.09,.73-.32,.9-.36,.12-.02,.24-.04,.38-.04,.16,0,.33,.02,.51,.05,1.59,.29,2.09,1.56,1.88,2.69-.22,1.18-1.22,2.22-2.73,1.95-.76-.15-1.67-.79-1.88-1.85h0c-.18-.9,.22-1.96,.94-2.45"/></g></g><path class="cls-2" d="M302.92,413.65c3.02,8.35,12.24,12.68,20.59,9.66s12.68-12.24,9.66-20.59-12.24-12.68-20.59-9.66c-8.35,3.02-12.68,12.23-9.66,20.58,0,0,0,0,0,0m-20.47,29.82c-3.16,5.58-1.19,12.67,4.4,15.82,5.58,3.16,12.67,1.19,15.82-4.4,3.16-5.58,1.19-12.67-4.4-15.82h0c-5.58-3.16-12.67-1.19-15.82,4.4m-16.69-22.54c-.73,3.64,1.62,7.19,5.26,7.92,3.64,.74,7.19-1.62,7.92-5.26h0c.73-3.65-1.61-7.19-5.26-7.92-3.64-.73-7.18,1.62-7.92,5.26"/></svg>